<svg width="81" height="93" viewBox="0 0 81 93" fill="none" xmlns="http://www.w3.org/2000/svg">
<path d="M73.1241 83.5671L40.4995 92.5559L7.87444 83.5671L0.345947 0.108765H80.6536L73.1241 83.5671Z" fill="black"/>
<path d="M40.4993 6.86877V85.3866L40.573 85.4072L66.9748 78.1325L73.0688 6.86877H40.4993Z" fill="black"/>
<path d="M40.4704 27.7367L17.1199 37.6877L17.8942 47.54L40.4704 37.6628L64.4855 27.1564L65.4812 17.0779L40.4704 27.7367Z" fill="#F1F1F1"/>
<path d="M17.1196 37.6877L17.894 47.54L40.4701 37.6627V27.7367L17.1196 37.6877Z" fill="#F1F1F1" fill-opacity="0.25"/>
<path d="M17.1555 37.6877L17.9301 47.54L52.5703 47.653L51.7954 60.7892L40.3968 64.0728L29.4394 61.2418L28.7754 53.0883H18.5941L19.9222 68.829L40.5075 75.0572L60.9811 68.942L63.6374 37.6877H17.1555Z" fill="#F1F1F1"/>
<path d="M65.4811 17.0781L40.4702 27.7367V37.6627L64.4854 27.1564L65.4811 17.0781Z" fill="#F1F1F1"/>
<path opacity="0.05" d="M40.4704 37.6877H17.1199L17.8942 47.54L40.4704 47.6138V37.6877ZM40.4704 64.0415L40.3597 64.0731L29.4037 61.2421L28.7398 53.0885H18.5587L19.8865 68.8292L40.4704 75.0574V64.0415Z" fill="#F1F1F1"/>
<path d="M15.0168 17.0781H65.4811L64.4855 27.1566H16.2341L15.0168 17.0781Z" fill="#F1F1F1"/>
<path opacity="0.05" d="M40.4703 17.0781H15.0168L16.2341 27.1566H40.4703V17.0781Z" fill="#F1F1F1"/>
</svg>
