<svg width="200" height="89" viewBox="0 0 200 89" fill="none" xmlns="http://www.w3.org/2000/svg">
<path d="M61.7016 3.88916H6.70211C3.01576 3.88916 0 6.9053 0 10.5913V71.2455C0 74.9315 3.01576 77.9476 6.70211 77.9476H42.926C42.5148 59.9234 48.6698 24.9443 61.7016 3.88916Z" fill="#232323"/>
<path d="M76.0172 43.7861C73.3516 43.7861 71.1838 44.5755 69.5222 46.1524C67.8609 47.7312 67.018 49.8004 67.018 52.3363C67.018 53.6501 67.2271 54.8483 67.6393 55.9461C68.052 57.0461 68.6941 58.0653 69.557 58.9864C70.4198 59.9079 72.1472 61.1596 74.7213 62.7517C77.8805 64.6799 79.9474 66.245 80.9396 67.467C81.9322 68.6879 82.425 69.9673 82.425 71.3015C82.425 73.0874 81.8373 74.5134 80.6286 75.585C79.4183 76.6573 77.7992 77.1911 75.7925 77.1911C73.6756 77.1911 71.8314 76.4451 70.2479 74.9636C68.6644 73.4794 67.8648 71.5164 67.8469 69.056H66.8621V77.986H67.8469C68.1478 77.1403 68.5636 76.7081 69.1079 76.7081C69.3698 76.7081 69.9833 76.8883 70.9388 77.2259C73.2636 78.0532 75.1727 78.4522 76.6733 78.4522C79.2592 78.4522 81.4668 77.5468 83.3059 75.7061C85.1426 73.8663 86.0696 71.647 86.0696 69.056C86.0696 67.0473 85.4576 65.2594 84.2563 63.7017C83.0546 62.1417 80.718 60.3272 77.2259 58.2435C74.2211 56.4381 72.2706 54.9679 71.3706 53.8217C70.4691 52.6771 70.006 51.4109 70.006 50.0216C70.006 48.519 70.5582 47.3119 71.6469 46.4115C72.7357 45.5107 74.1625 45.0644 75.948 45.0644C77.9567 45.0644 79.6316 45.6608 80.9568 46.8609C82.2808 48.063 83.0464 49.7289 83.2715 51.8697H84.2563V44.132H83.3407C83.2285 44.5263 83.1249 44.7784 83.0296 44.8917C82.937 45.0042 82.7588 45.0644 82.4942 45.0644C82.1757 45.0644 81.6079 44.9304 80.8013 44.667C79.074 44.0855 77.4815 43.7861 76.0168 43.7861H76.0172ZM108.196 43.7861C104.948 43.7861 101.999 44.5521 99.3351 46.0836C96.6667 47.6124 94.5545 49.7356 92.996 52.4399C91.4379 55.1442 90.6641 58.0157 90.6641 61.0764C90.6641 65.1875 92.01 68.8508 94.7233 72.0616C97.4378 75.27 100.691 77.2693 104.465 78.038C105.328 78.4874 106.562 79.6481 108.179 81.527C110 83.647 111.541 85.1762 112.808 86.0868C114.046 86.9796 115.423 87.6625 116.884 88.108C118.33 88.548 119.892 88.7645 121.582 88.7645C123.629 88.7645 125.461 88.4085 127.075 87.6761L126.712 86.7777C125.775 87.1157 124.776 87.2787 123.724 87.2787C122.296 87.2787 120.853 86.8078 119.406 85.8625C117.961 84.9144 116.154 83.1062 114 80.4386C112.987 79.1607 112.288 78.3541 111.892 78.038C116.022 77.2314 119.418 75.2301 122.066 72.0268C124.713 68.8254 126.038 65.1715 126.038 61.076C126.038 56.2138 124.308 52.1268 120.874 48.7953C117.437 45.463 113.21 43.7861 108.196 43.7861ZM128.284 43.7861L128.336 44.8397C130.498 44.8397 131.71 45.4767 131.98 46.7569C132.081 47.2153 132.127 48.061 132.136 49.2787L132.118 72.5798C132.1 74.32 131.853 75.431 131.376 75.9132C130.898 76.392 130.091 76.6921 128.923 76.8113L128.871 77.8653H150.427L150.98 72.5798H149.996C149.714 74.0195 149.07 75.0512 148.044 75.637C147.015 76.2271 145.196 76.5178 142.569 76.5178H140.53C138.166 76.5178 136.798 75.6631 136.437 73.944C136.362 73.604 136.337 73.2394 136.333 72.8389L136.419 49.2787C136.419 47.5413 136.638 46.3771 137.093 45.8069C137.552 45.2391 138.381 44.9214 139.58 44.8397L139.529 43.7861H128.284ZM108.541 45.064C112.205 45.064 115.195 46.5072 117.506 49.4171C119.815 52.3281 120.96 56.3177 120.96 61.3699C120.96 66.1571 119.799 69.99 117.471 72.8733C115.143 75.7558 112.046 77.1915 108.196 77.1915C104.497 77.1915 101.498 75.7108 99.1967 72.7353C96.8973 69.7594 95.7597 65.896 95.7597 61.1452C95.7597 56.2634 96.9114 52.3554 99.2315 49.4343C101.55 46.5166 104.655 45.0644 108.541 45.0644L108.541 45.064ZM158.114 50.0736C157.588 50.0736 157.187 50.251 156.888 50.609C156.581 50.9654 156.487 51.3972 156.594 51.9217C156.697 52.4305 156.985 52.876 157.44 53.2515C157.894 53.6267 158.382 53.8217 158.908 53.8217C159.417 53.8217 159.805 53.6267 160.083 53.2515C160.361 52.8764 160.446 52.4305 160.342 51.9217C160.235 51.3972 159.958 50.9654 159.53 50.6086C159.098 50.251 158.622 50.0736 158.114 50.0736ZM172.329 53.649C171.436 57.0856 169.499 58.9454 166.526 59.2451L166.56 60.2299H170.032L169.963 71.8717C169.968 73.862 170.029 75.1872 170.17 75.8617C170.512 77.476 171.567 78.2971 173.331 78.2971C175.884 78.2971 178.562 76.7417 181.363 73.6334L180.517 72.908C178.494 74.955 176.706 75.9824 175.145 75.9824C174.185 75.9824 173.59 75.4306 173.365 74.3415C173.304 74.0769 173.279 73.7678 173.279 73.4087L173.314 60.2299H178.617L178.565 58.6578H173.331V53.649H172.329ZM192.832 58.036C189.866 58.036 187.453 59.4761 185.577 62.3371C183.711 65.2028 183.134 68.378 183.867 71.8717C184.299 73.9179 185.159 75.5037 186.475 76.6214C187.79 77.739 189.457 78.2971 191.45 78.2971C193.306 78.2971 195.89 77.827 196.977 76.8805C198.068 75.9347 199.072 74.402 200 72.3035L199.258 71.5258C197.777 74.2489 194.791 75.6198 192.538 75.6198C189.442 75.6198 187.545 73.9206 186.838 70.5414C186.743 70.0851 186.674 69.6237 186.631 69.1596C190.315 68.5765 193.107 67.5436 194.991 66.0508C196.874 64.5568 198.764 62.9733 198.411 61.3007C198.201 60.3065 197.685 59.5249 196.891 58.9345C196.087 58.344 193.999 58.036 192.832 58.036ZM160.411 58.1572L154.02 59.6254V60.7653L156.231 60.489C157.302 60.489 157.932 60.9736 158.131 61.9397C158.198 62.2628 158.241 62.7173 158.252 63.2871L158.183 73.7369C158.165 75.1829 158.005 76.0235 157.682 76.2759C157.357 76.5287 156.498 76.6561 155.108 76.6561L155.074 77.6406H165.213L165.196 76.6558C163.787 76.6558 162.873 76.5448 162.467 76.3275C162.066 76.1126 161.791 75.7198 161.672 75.1188C161.58 74.6858 161.54 73.9393 161.534 72.908L161.569 58.1572H160.411H160.411ZM191.208 60.0916C191.825 60.0916 192.421 60.33 193.022 60.7997C193.614 61.2679 193.975 61.7884 194.093 62.3543C194.671 65.1328 192.208 67.0532 186.665 68.1232C186.507 66.0977 186.858 64.2582 187.754 62.5962C188.642 60.9353 189.8 60.0916 191.208 60.0916Z" fill="black"/>
<path d="M59.7035 5.84424H6.70212C4.08458 5.84424 1.95476 7.97367 1.95476 10.5916V66.8201C13.9584 62.2134 31.9744 58.2383 44.4313 58.4188C46.9347 45.3296 54.2918 19.6779 59.7035 5.84424Z" fill="url(#paint0_linear_335_116)"/>
<path d="M74.5302 1.90397C70.7634 -1.4549 66.2024 -0.105877 61.7017 3.8892C61.0334 4.48243 60.3667 5.14091 59.7035 5.84434C52.0033 14.0131 44.8557 29.1434 42.6352 40.6992C43.5004 42.4535 44.1761 44.6919 44.6208 46.402C44.735 46.8405 44.8377 47.2524 44.9202 47.6025C45.1156 48.4318 45.2207 48.9692 45.2207 48.9692C45.2207 48.9692 45.1515 48.7081 44.8682 47.8867C44.8143 47.7292 44.7541 47.5572 44.683 47.3548C44.6459 47.2558 44.6063 47.1578 44.5642 47.0609C44.062 45.8932 42.6727 43.4289 42.0611 42.3558C41.5764 43.7776 41.119 45.2085 40.6891 46.6478C42.4543 49.8777 43.5301 55.4129 43.5301 55.4129C43.5301 55.4129 43.4367 55.0542 42.9932 53.8021C42.5993 52.695 40.6379 49.2579 40.1732 48.4545C39.3783 51.3889 39.0626 53.3699 39.3475 53.8521C39.9004 54.7865 40.4268 56.3993 40.8895 58.1825C41.9341 62.1999 42.6598 67.091 42.6598 67.091C42.6598 67.091 42.6833 67.4154 42.7231 67.914C42.5778 71.2878 42.6649 74.7857 42.9264 77.9473C43.2722 82.1327 43.9237 85.728 44.7541 87.6522L45.318 87.3451C44.0987 83.554 43.6032 78.5858 43.8201 72.856C44.1484 64.0983 46.1637 53.5364 49.8876 42.5281C56.1793 25.9104 64.9081 12.5773 72.8971 6.20973C65.6154 12.786 55.7604 34.0721 52.8103 41.9544C49.5069 50.7817 47.1661 59.0649 45.7553 67.0011C48.1896 59.5608 56.0598 56.363 56.0598 56.363C56.0598 56.363 59.9196 51.6023 64.4306 44.801C61.7286 45.4172 57.2915 46.4724 55.8054 47.0969C53.613 48.0164 53.0225 48.3302 53.0225 48.3302C53.0225 48.3302 60.1232 44.0057 66.2157 42.0478C74.5943 28.8515 83.7229 10.1044 74.5302 1.90397Z" fill="black"/>
<defs>
<linearGradient id="paint0_linear_335_116" x1="30.8291" y1="5.84424" x2="30.8291" y2="66.8201" gradientUnits="userSpaceOnUse">
<stop/>
<stop offset="1" stop-color="#666666"/>
</linearGradient>
</defs>
</svg>
