<svg width="120" height="120" viewBox="0 0 120 120" fill="none" xmlns="http://www.w3.org/2000/svg">
<path d="M0 60V120H120V0H0V60ZM72.815 98.13C73.355 97.825 75.37 96.66 77.275 95.555L80.725 93.555L81.45 94.625C82.46 96.165 84.665 98.28 86 98.985C89.83 101.005 95.085 100.72 97.675 98.395C98.64 97.58 99.245 96.37 99.245 95.02C99.245 94.94 99.245 94.865 99.24 94.785V94.795C99.24 93.405 99.065 92.795 98.34 91.745C97.41 90.415 95.505 89.295 90.095 86.945C83.905 84.28 81.24 82.625 78.8 79.995C77.33 78.325 76.195 76.315 75.535 74.105L75.505 73.995C75.05 72.3 74.935 68.05 75.295 66.34C76.57 60.355 81.085 56.19 87.6 54.95C89.715 54.55 94.63 54.7 96.705 55.215C99.755 55.975 102.075 57.335 104.21 59.545C105.315 60.725 106.955 62.875 107.085 63.395C107.125 63.545 101.905 67.045 98.745 69.01C98.63 69.085 98.17 68.59 97.66 67.83C96.11 65.58 94.495 64.61 92.02 64.44C88.38 64.19 86.04 66.095 86.06 69.275C86.06 69.33 86.055 69.395 86.055 69.46C86.055 70.215 86.245 70.925 86.58 71.545L86.57 71.52C87.37 73.175 88.86 74.17 93.52 76.185C102.115 79.885 105.79 82.32 108.075 85.785C110.625 89.65 111.2 95.825 109.465 100.415C107.565 105.405 102.84 108.795 96.19 109.915C94.135 110.28 89.26 110.225 87.05 109.825C82.23 108.965 77.66 106.585 74.84 103.46C73.735 102.245 71.58 99.06 71.715 98.835C71.77 98.755 72.265 98.45 72.815 98.13ZM26.29 60.325C26.29 57.655 26.345 55.425 26.42 55.375C26.48 55.295 35.985 55.255 47.505 55.275L68.48 55.335L68.535 60.23L68.575 65.145H52.95V109.525H41.9V65.145H26.29V60.325Z" fill="black"/>
</svg>
