<svg width="100" height="100" viewBox="0 0 100 100" fill="none" xmlns="http://www.w3.org/2000/svg">
<rect width="100" height="100" rx="24" fill="url(#paint0_linear_317_102)"/>
<path d="M49.9965 74.024C44.1938 74.024 39.7138 72.7013 36.5565 70.056C33.3992 67.4107 31.7138 63.7627 31.5005 59.112L42.8285 58.728C43.0418 60.8187 43.7458 62.376 44.9405 63.4C46.1778 64.424 47.8632 64.936 49.9965 64.936C51.4045 64.936 52.6205 64.7227 53.6445 64.296C54.7112 63.8267 55.5432 63.1867 56.1405 62.376C56.7378 61.5227 57.0365 60.4987 57.0365 59.304C57.0365 57.384 56.3752 55.9333 55.0525 54.952C53.7298 53.9707 51.9165 53.48 49.6125 53.48H45.3885V45.672H49.6125C51.3192 45.672 52.7485 45.288 53.9005 44.52C55.0525 43.752 55.6285 42.4933 55.6285 40.744C55.6285 39.208 55.1592 37.9707 54.2205 37.032C53.3245 36.0933 51.8525 35.624 49.8045 35.624C47.7138 35.624 46.1565 36.072 45.1325 36.968C44.1085 37.864 43.4685 38.9733 43.2125 40.296L32.0125 39.72C32.4818 35.7093 34.2525 32.5093 37.3245 30.12C40.4392 27.7307 44.5992 26.536 49.8045 26.536C53.5592 26.536 56.7165 27.0693 59.2765 28.136C61.8365 29.16 63.7565 30.632 65.0365 32.552C66.3592 34.472 67.0205 36.776 67.0205 39.464C67.0205 42.1093 66.1245 44.3067 64.3325 46.056C62.5405 47.8053 60.0232 48.9787 56.7805 49.576V48.552C60.5778 49.1493 63.4792 50.4507 65.4845 52.456C67.4898 54.4613 68.4925 57.0427 68.4925 60.2C68.4925 63.1013 67.7458 65.576 66.2525 67.624C64.7592 69.672 62.6258 71.2507 59.8525 72.36C57.0792 73.4693 53.7938 74.024 49.9965 74.024Z" fill="#F1F1F1"/>
<defs>
<linearGradient id="paint0_linear_317_102" x1="50" y1="0" x2="50" y2="100" gradientUnits="userSpaceOnUse">
<stop stop-color="#62FFC8" stop-opacity="0.6"/>
<stop offset="1" stop-color="#6AFF9F"/>
</linearGradient>
</defs>
</svg>
