<svg width="140" height="140" viewBox="0 0 140 140" fill="none" xmlns="http://www.w3.org/2000/svg">
<rect width="140" height="140" rx="24" fill="url(#paint0_linear_254_700)"/>
<path d="M42.1795 87.0515C36.7949 91.5745 35 105 35 105C35 105 48.4256 103.205 52.9487 97.8206C55.4974 94.8053 55.4615 90.1745 52.6256 87.3746C51.2303 86.0428 49.3923 85.2733 47.4644 85.2137C45.5365 85.1541 43.6544 85.8085 42.1795 87.0515Z" fill="url(#paint1_linear_254_700)"/>
<path d="M69.1026 81.667L58.3333 70.8979C60.2436 65.942 62.6489 61.1916 65.5128 56.7186C69.6955 50.0309 75.5197 44.5245 82.4313 40.7232C89.3429 36.9219 97.1121 34.952 105 35.0009C105 44.7649 102.2 61.9236 83.4615 74.4876C78.9273 77.3547 74.1169 79.7599 69.1026 81.667Z" fill="url(#paint2_linear_254_700)"/>
<path d="M58.3333 70.8979H40.3846C40.3846 70.8979 42.359 60.0211 47.5641 56.5391C53.3795 52.6622 65.5128 56.5391 65.5128 56.5391" fill="url(#paint3_linear_254_700)"/>
<path d="M69.1026 81.667V99.6154C69.1026 99.6154 79.9795 97.6411 83.4615 92.4361C87.3385 86.6207 83.4615 74.4876 83.4615 74.4876" fill="url(#paint4_linear_254_700)"/>
<path d="M69.1026 81.667L58.3333 70.8979M69.1026 81.667C74.1169 79.7599 78.9273 77.3547 83.4615 74.4876M69.1026 81.667V99.6154C69.1026 99.6154 79.9795 97.6411 83.4615 92.4361C87.3385 86.6207 83.4615 74.4876 83.4615 74.4876M58.3333 70.8979C60.2436 65.942 62.6489 61.1916 65.5128 56.7186C69.6955 50.0309 75.5197 44.5245 82.4313 40.7232C89.3429 36.9219 97.1121 34.952 105 35.0009C105 44.7649 102.2 61.9236 83.4615 74.4876M58.3333 70.8979H40.3846C40.3846 70.8979 42.359 60.0211 47.5641 56.5391C53.3795 52.6622 65.5128 56.5391 65.5128 56.5391M42.1795 87.0515C36.7949 91.5745 35 105 35 105C35 105 48.4256 103.205 52.9487 97.8206C55.4974 94.8053 55.4615 90.1745 52.6256 87.3746C51.2303 86.0428 49.3923 85.2733 47.4644 85.2137C45.5365 85.1541 43.6544 85.8085 42.1795 87.0515Z" stroke="#F1F1F1" stroke-width="8"/>
<defs>
<linearGradient id="paint0_linear_254_700" x1="70" y1="0" x2="70" y2="140" gradientUnits="userSpaceOnUse">
<stop stop-color="#62FFC8"/>
<stop offset="1" stop-color="#6AFF9F"/>
</linearGradient>
<linearGradient id="paint1_linear_254_700" x1="70" y1="35" x2="70" y2="105" gradientUnits="userSpaceOnUse">
<stop stop-color="#62FFC8"/>
<stop offset="1" stop-color="#6AFF9F"/>
</linearGradient>
<linearGradient id="paint2_linear_254_700" x1="70" y1="35" x2="70" y2="105" gradientUnits="userSpaceOnUse">
<stop stop-color="#62FFC8"/>
<stop offset="1" stop-color="#6AFF9F"/>
</linearGradient>
<linearGradient id="paint3_linear_254_700" x1="70" y1="35" x2="70" y2="105" gradientUnits="userSpaceOnUse">
<stop stop-color="#62FFC8"/>
<stop offset="1" stop-color="#6AFF9F"/>
</linearGradient>
<linearGradient id="paint4_linear_254_700" x1="70" y1="35" x2="70" y2="105" gradientUnits="userSpaceOnUse">
<stop stop-color="#62FFC8"/>
<stop offset="1" stop-color="#6AFF9F"/>
</linearGradient>
</defs>
</svg>
